<svg xmlns="http://www.w3.org/2000/svg" xmlns:xlink="http://www.w3.org/1999/xlink" width="500" zoomAndPan="magnify" viewBox="0 0 375 374.999991" height="500" preserveAspectRatio="xMidYMid meet" version="1.0"><defs><g/></defs><g fill="#4433e1" fill-opacity="1"><g transform="translate(43.470304, 309.749992)"><g><path d="M 108.15625 4.203125 C 93.21875 4.203125 79.738281 1.867188 67.71875 -2.796875 C 55.707031 -7.460938 45.617188 -14.171875 37.453125 -22.921875 C 29.285156 -31.671875 22.984375 -41.992188 18.546875 -53.890625 C 14.117188 -65.796875 11.90625 -78.75 11.90625 -92.75 C 11.90625 -110.945312 15.578125 -126.8125 22.921875 -140.34375 C 30.273438 -153.882812 40.425781 -164.503906 53.375 -172.203125 C 66.320312 -179.898438 81.195312 -183.75 98 -183.75 C 105.226562 -183.75 112.050781 -182.816406 118.46875 -180.953125 C 124.882812 -179.085938 130.71875 -176.34375 135.96875 -172.71875 C 141.21875 -169.101562 145.59375 -164.847656 149.09375 -159.953125 L 150.15625 -159.953125 L 150.15625 -255.5 L 204.40625 -255.5 L 204.40625 -93.09375 C 204.40625 -73.5 200.4375 -56.347656 192.5 -41.640625 C 184.5625 -26.941406 173.414062 -15.625 159.0625 -7.6875 C 144.71875 0.238281 127.75 4.203125 108.15625 4.203125 Z M 108.15625 -42.703125 C 116.550781 -42.703125 123.835938 -44.742188 130.015625 -48.828125 C 136.203125 -52.910156 140.925781 -58.507812 144.1875 -65.625 C 147.457031 -72.738281 149.09375 -80.726562 149.09375 -89.59375 C 149.09375 -98.46875 147.457031 -106.40625 144.1875 -113.40625 C 140.925781 -120.40625 136.203125 -125.945312 130.015625 -130.03125 C 123.835938 -134.113281 116.550781 -136.15625 108.15625 -136.15625 C 99.988281 -136.15625 92.753906 -134.113281 86.453125 -130.03125 C 80.148438 -125.945312 75.363281 -120.40625 72.09375 -113.40625 C 68.832031 -106.40625 67.203125 -98.46875 67.203125 -89.59375 C 67.203125 -80.726562 68.832031 -72.738281 72.09375 -65.625 C 75.363281 -58.507812 80.148438 -52.910156 86.453125 -48.828125 C 92.753906 -44.742188 99.988281 -42.703125 108.15625 -42.703125 Z M 108.15625 -42.703125 "/></g></g></g><g fill="#4433e1" fill-opacity="1"><g transform="translate(238.066678, 309.749992)"><g><path d="M 46.90625 4.203125 C 37.570312 4.203125 29.578125 0.878906 22.921875 -5.765625 C 16.273438 -12.421875 12.953125 -20.300781 12.953125 -29.40625 C 12.953125 -38.738281 16.273438 -46.726562 22.921875 -53.375 C 29.578125 -60.019531 37.570312 -63.34375 46.90625 -63.34375 C 56 -63.34375 63.867188 -60.019531 70.515625 -53.375 C 77.171875 -46.726562 80.5 -38.738281 80.5 -29.40625 C 80.5 -23.332031 78.984375 -17.726562 75.953125 -12.59375 C 72.921875 -7.46875 68.894531 -3.382812 63.875 -0.34375 C 58.851562 2.6875 53.195312 4.203125 46.90625 4.203125 Z M 46.90625 4.203125 "/></g></g></g></svg>