<svg width="10" height="11" viewBox="0 0 10 11" fill="none" xmlns="http://www.w3.org/2000/svg">
<path d="M2.5 5.98535C2.5 5.83988 2.53124 5.70083 2.5918 5.56836C2.67667 5.40293 2.80997 5.27028 2.96777 5.19727C3.07562 5.15136 3.39724 5.07994 3.41113 5.07812C3.742 5.01121 4.26445 4.97237 4.84961 4.9668L4.99707 4.96582C5.61025 4.96582 6.16976 5.00593 6.53418 5.06543L6.76074 5.11719C6.88059 5.14615 7.01714 5.18395 7.08691 5.22363C7.3421 5.36913 7.5 5.65449 7.5 5.95898V5.98535C7.49388 6.18397 7.33558 6.60059 7.33008 6.60059C7.0741 7.2716 6.30165 8.56621 5.75098 9.16406L5.58594 9.33789C5.54113 9.38338 5.48762 9.43409 5.44629 9.46582C5.31871 9.57177 5.16078 9.625 5.00293 9.625C4.82687 9.62494 4.66321 9.56547 4.5293 9.45312L4.35352 9.27441L4.31641 9.23438C3.78169 8.69176 2.9072 7.2751 2.63965 6.53418L2.60059 6.42285C2.55676 6.28835 2.5049 6.09976 2.5 5.98535ZM4.36816 2.06445C4.36816 1.68402 4.65081 1.37511 5 1.375C5.34927 1.375 5.63281 1.68396 5.63281 2.06445L5.49609 3.75977C5.49595 4.05813 5.27391 4.2998 5 4.2998C4.72571 4.2997 4.50405 4.05806 4.50391 3.75977L4.36816 2.06445Z" fill="#4433E1"/>
</svg>
