<svg xmlns="http://www.w3.org/2000/svg" xmlns:xlink="http://www.w3.org/1999/xlink" width="500" zoomAndPan="magnify" viewBox="0 0 375 187.499995" height="250" preserveAspectRatio="xMidYMid meet" version="1.0"><defs><g/></defs><g fill="#4433e1" fill-opacity="1"><g transform="translate(32.26802, 138.006972)"><g><path d="M 40.0625 1.5625 C 34.53125 1.5625 29.535156 0.695312 25.078125 -1.03125 C 20.628906 -2.757812 16.890625 -5.242188 13.859375 -8.484375 C 10.835938 -11.734375 8.503906 -15.5625 6.859375 -19.96875 C 5.222656 -24.375 4.40625 -29.171875 4.40625 -34.359375 C 4.40625 -41.097656 5.765625 -46.972656 8.484375 -51.984375 C 11.210938 -56.992188 14.972656 -60.925781 19.765625 -63.78125 C 24.566406 -66.632812 30.078125 -68.0625 36.296875 -68.0625 C 38.972656 -68.0625 41.5 -67.710938 43.875 -67.015625 C 46.257812 -66.328125 48.421875 -65.3125 50.359375 -63.96875 C 52.304688 -62.632812 53.929688 -61.0625 55.234375 -59.25 L 55.609375 -59.25 L 55.609375 -94.640625 L 75.703125 -94.640625 L 75.703125 -34.484375 C 75.703125 -27.222656 74.234375 -20.867188 71.296875 -15.421875 C 68.359375 -9.984375 64.234375 -5.789062 58.921875 -2.84375 C 53.609375 0.09375 47.320312 1.5625 40.0625 1.5625 Z M 40.0625 -15.8125 C 43.164062 -15.8125 45.863281 -16.566406 48.15625 -18.078125 C 50.445312 -19.597656 52.195312 -21.675781 53.40625 -24.3125 C 54.625 -26.945312 55.234375 -29.90625 55.234375 -33.1875 C 55.234375 -36.46875 54.625 -39.40625 53.40625 -42 C 52.195312 -44.59375 50.445312 -46.644531 48.15625 -48.15625 C 45.863281 -49.675781 43.164062 -50.4375 40.0625 -50.4375 C 37.03125 -50.4375 34.347656 -49.675781 32.015625 -48.15625 C 29.679688 -46.644531 27.910156 -44.59375 26.703125 -42 C 25.492188 -39.40625 24.890625 -36.46875 24.890625 -33.1875 C 24.890625 -29.90625 25.492188 -26.945312 26.703125 -24.3125 C 27.910156 -21.675781 29.679688 -19.597656 32.015625 -18.078125 C 34.347656 -16.566406 37.03125 -15.8125 40.0625 -15.8125 Z M 40.0625 -15.8125 "/></g></g></g><g fill="#4433e1" fill-opacity="1"><g transform="translate(104.339359, 138.006972)"><g><path d="M 40.453125 1.5625 C 33.617188 1.5625 27.476562 0.0507812 22.03125 -2.96875 C 16.59375 -6 12.296875 -10.148438 9.140625 -15.421875 C 5.984375 -20.691406 4.40625 -26.613281 4.40625 -33.1875 C 4.40625 -39.84375 5.984375 -45.785156 9.140625 -51.015625 C 12.296875 -56.242188 16.59375 -60.390625 22.03125 -63.453125 C 27.476562 -66.523438 33.617188 -68.0625 40.453125 -68.0625 C 47.273438 -68.0625 53.382812 -66.523438 58.78125 -63.453125 C 64.1875 -60.390625 68.46875 -56.242188 71.625 -51.015625 C 74.78125 -45.785156 76.359375 -39.84375 76.359375 -33.1875 C 76.359375 -26.613281 74.78125 -20.691406 71.625 -15.421875 C 68.46875 -10.148438 64.164062 -6 58.71875 -2.96875 C 53.28125 0.0507812 47.191406 1.5625 40.453125 1.5625 Z M 40.453125 -15.953125 C 43.648438 -15.953125 46.414062 -16.726562 48.75 -18.28125 C 51.082031 -19.832031 52.894531 -21.90625 54.1875 -24.5 C 55.488281 -27.09375 56.140625 -30.03125 56.140625 -33.3125 C 56.140625 -36.507812 55.488281 -39.40625 54.1875 -42 C 52.894531 -44.59375 51.082031 -46.664062 48.75 -48.21875 C 46.414062 -49.78125 43.648438 -50.5625 40.453125 -50.5625 C 37.253906 -50.5625 34.460938 -49.78125 32.078125 -48.21875 C 29.703125 -46.664062 27.863281 -44.59375 26.5625 -42 C 25.269531 -39.40625 24.625 -36.507812 24.625 -33.3125 C 24.625 -30.03125 25.269531 -27.09375 26.5625 -24.5 C 27.863281 -21.90625 29.703125 -19.832031 32.078125 -18.28125 C 34.460938 -16.726562 37.253906 -15.953125 40.453125 -15.953125 Z M 40.453125 -15.953125 "/></g></g></g><g fill="#4433e1" fill-opacity="1"><g transform="translate(174.466291, 138.006972)"><g><path d="M 7.515625 0 L 7.515625 -38.25 C 7.515625 -43.78125 8.851562 -48.789062 11.53125 -53.28125 C 14.21875 -57.78125 18.046875 -61.367188 23.015625 -64.046875 C 27.984375 -66.722656 33.878906 -68.0625 40.703125 -68.0625 C 47.617188 -68.0625 53.519531 -66.722656 58.40625 -64.046875 C 63.289062 -61.367188 67.023438 -57.78125 69.609375 -53.28125 C 72.203125 -48.789062 73.5 -43.78125 73.5 -38.25 L 73.5 0 L 53.40625 0 L 53.40625 -37.71875 C 53.40625 -40.050781 52.84375 -42.191406 51.71875 -44.140625 C 50.601562 -46.085938 49.070312 -47.644531 47.125 -48.8125 C 45.175781 -49.976562 42.992188 -50.5625 40.578125 -50.5625 C 38.066406 -50.5625 35.835938 -49.976562 33.890625 -48.8125 C 31.953125 -47.644531 30.421875 -46.085938 29.296875 -44.140625 C 28.171875 -42.191406 27.609375 -40.050781 27.609375 -37.71875 L 27.609375 0 Z M 7.515625 0 "/></g></g></g><g fill="#4433e1" fill-opacity="1"><g transform="translate(244.852473, 138.006972)"><g><path d="M 42.265625 0 C 34.742188 0 28.128906 -1.398438 22.421875 -4.203125 C 16.722656 -7.015625 12.296875 -10.90625 9.140625 -15.875 C 5.984375 -20.84375 4.40625 -26.613281 4.40625 -33.1875 C 4.40625 -40.445312 5.914062 -46.671875 8.9375 -51.859375 C 11.96875 -57.046875 16.007812 -61.039062 21.0625 -63.84375 C 26.125 -66.65625 31.722656 -68.0625 37.859375 -68.0625 C 44.859375 -68.0625 50.710938 -66.59375 55.421875 -63.65625 C 60.128906 -60.71875 63.691406 -56.71875 66.109375 -51.65625 C 68.535156 -46.601562 69.75 -40.835938 69.75 -34.359375 C 69.75 -33.234375 69.679688 -31.910156 69.546875 -30.390625 C 69.421875 -28.878906 69.269531 -27.691406 69.09375 -26.828125 L 25.546875 -26.828125 C 26.054688 -24.585938 27.046875 -22.6875 28.515625 -21.125 C 29.984375 -19.570312 31.84375 -18.425781 34.09375 -17.6875 C 36.34375 -16.957031 38.847656 -16.59375 41.609375 -16.59375 L 61.96875 -16.59375 L 61.96875 0 Z M 25.015625 -39.40625 L 50.296875 -39.40625 C 50.128906 -40.789062 49.867188 -42.128906 49.515625 -43.421875 C 49.171875 -44.722656 48.628906 -45.867188 47.890625 -46.859375 C 47.160156 -47.859375 46.320312 -48.722656 45.375 -49.453125 C 44.425781 -50.191406 43.320312 -50.773438 42.0625 -51.203125 C 40.8125 -51.640625 39.410156 -51.859375 37.859375 -51.859375 C 35.867188 -51.859375 34.09375 -51.507812 32.53125 -50.8125 C 30.976562 -50.125 29.679688 -49.195312 28.640625 -48.03125 C 27.609375 -46.863281 26.8125 -45.523438 26.25 -44.015625 C 25.6875 -42.503906 25.273438 -40.96875 25.015625 -39.40625 Z M 25.015625 -39.40625 "/></g></g></g><g fill="#4433e1" fill-opacity="1"><g transform="translate(308.109161, 138.006972)"><g><path d="M 17.375 1.5625 C 13.914062 1.5625 10.953125 0.332031 8.484375 -2.125 C 6.023438 -4.59375 4.796875 -7.515625 4.796875 -10.890625 C 4.796875 -14.347656 6.023438 -17.304688 8.484375 -19.765625 C 10.953125 -22.234375 13.914062 -23.46875 17.375 -23.46875 C 20.738281 -23.46875 23.648438 -22.234375 26.109375 -19.765625 C 28.578125 -17.304688 29.8125 -14.347656 29.8125 -10.890625 C 29.8125 -8.640625 29.25 -6.5625 28.125 -4.65625 C 27.007812 -2.757812 25.519531 -1.25 23.65625 -0.125 C 21.800781 1 19.707031 1.5625 17.375 1.5625 Z M 17.375 1.5625 "/></g></g></g></svg>